# xmcd CD database file
#
# Track frame offsets:
#	150
#	19621
#	37848
#	52621
#	63086
#	75876
#	83905
#	98997
#	113803
#	122238
#	136466
#	153008
#	169131
#	184617
#	194894
#	215840
#	235125
#
# Disc length: 3292 seconds
#
# Revision: 0
# Processed by: cddbd v1.5PL3 Copyright (c) Steve Scherf et al.
# Submitted via: CDex 1.51
#
DISCID=d50cda11
DTITLE=Sojiro plays world's favorite songs and famous music - Sojiro -  Ocarina etude II
DYEAR=1999
DGENRE=New Age
TTITLE0=(Japanese Title)
TTITLE1=(Japanese Title)
TTITLE2=(Japanese Title)
TTITLE3=(Japanese Title)
TTITLE4=(Japanese Title)
TTITLE5=(Japanese Title)
TTITLE6=(Japanese Title)
TTITLE7=(Japanese Title)
TTITLE8=(Japanese Title)
TTITLE9=(Japanese Title)
TTITLE10=(Japanese Title)
TTITLE11=(Japanese Title)
TTITLE12=(Japanese Title)
TTITLE13=(Japanese Title)
TTITLE14=(Japanese Title)
TTITLE15=(Japanese Title)
TTITLE16=(Japanese Title)
EXTD=YEAR: 1999
EXTT0=
EXTT1=
EXTT2=
EXTT3=
EXTT4=
EXTT5=
EXTT6=
EXTT7=
EXTT8=
EXTT9=
EXTT10=
EXTT11=
EXTT12=
EXTT13=
EXTT14=
EXTT15=
EXTT16=
PLAYORDER=
